<?xml version="1.0" encoding="us-ascii" standalone="no"?><svg xmlns="http://www.w3.org/2000/svg" xmlns:xlink="http://www.w3.org/1999/xlink" contentStyleType="text/css" height="125px" preserveAspectRatio="none" style="width:877px;height:125px;background:#FFFFFF;" version="1.1" viewBox="0 0 877 125" width="877px" zoomAndPan="magnify"><defs/><g><!--entity robot--><g id="elem_robot"><rect fill="#F1F1F1" height="46.2969" rx="2.5" ry="2.5" style="stroke:#181818;stroke-width:0.5;" width="82" x="231" y="64.34"/><rect fill="#F1F1F1" height="10" style="stroke:#181818;stroke-width:0.5;" width="15" x="293" y="69.34"/><rect fill="#F1F1F1" height="2" style="stroke:#181818;stroke-width:0.5;" width="4" x="291" y="71.34"/><rect fill="#F1F1F1" height="2" style="stroke:#181818;stroke-width:0.5;" width="4" x="291" y="75.34"/><text fill="#000000" font-family="sans-serif" font-size="14" lengthAdjust="spacing" textLength="42" x="246" y="97.3351">Robot</text></g><!--entity plc--><g id="elem_plc"><rect fill="#F1F1F1" height="46.2969" rx="2.5" ry="2.5" style="stroke:#181818;stroke-width:0.5;" width="66" x="7" y="64.34"/><rect fill="#F1F1F1" height="10" style="stroke:#181818;stroke-width:0.5;" width="15" x="53" y="69.34"/><rect fill="#F1F1F1" height="2" style="stroke:#181818;stroke-width:0.5;" width="4" x="51" y="71.34"/><rect fill="#F1F1F1" height="2" style="stroke:#181818;stroke-width:0.5;" width="4" x="51" y="75.34"/><text fill="#000000" font-family="sans-serif" font-size="14" lengthAdjust="spacing" textLength="26" x="22" y="97.3351">PLC</text></g><!--entity componentholder--><g id="elem_componentholder"><rect fill="#F1F1F1" height="46.2969" rx="2.5" ry="2.5" style="stroke:#181818;stroke-width:0.5;" width="171" x="700.5" y="64.34"/><rect fill="#F1F1F1" height="10" style="stroke:#181818;stroke-width:0.5;" width="15" x="851.5" y="69.34"/><rect fill="#F1F1F1" height="2" style="stroke:#181818;stroke-width:0.5;" width="4" x="849.5" y="71.34"/><rect fill="#F1F1F1" height="2" style="stroke:#181818;stroke-width:0.5;" width="4" x="849.5" y="75.34"/><text fill="#000000" font-family="sans-serif" font-size="14" lengthAdjust="spacing" textLength="131" x="715.5" y="97.3351">Component Holder</text></g><!--entity motors--><g id="elem_motors"><rect fill="#F1F1F1" height="46.2969" rx="2.5" ry="2.5" style="stroke:#181818;stroke-width:0.5;" width="88" x="108" y="64.34"/><rect fill="#F1F1F1" height="10" style="stroke:#181818;stroke-width:0.5;" width="15" x="176" y="69.34"/><rect fill="#F1F1F1" height="2" style="stroke:#181818;stroke-width:0.5;" width="4" x="174" y="71.34"/><rect fill="#F1F1F1" height="2" style="stroke:#181818;stroke-width:0.5;" width="4" x="174" y="75.34"/><text fill="#000000" font-family="sans-serif" font-size="14" lengthAdjust="spacing" textLength="48" x="123" y="97.3351">Motors</text></g><!--entity valvebase--><g id="elem_valvebase"><rect fill="#F1F1F1" height="46.2969" rx="2.5" ry="2.5" style="stroke:#181818;stroke-width:0.5;" width="115" x="400.5" y="64.34"/><rect fill="#F1F1F1" height="10" style="stroke:#181818;stroke-width:0.5;" width="15" x="495.5" y="69.34"/><rect fill="#F1F1F1" height="2" style="stroke:#181818;stroke-width:0.5;" width="4" x="493.5" y="71.34"/><rect fill="#F1F1F1" height="2" style="stroke:#181818;stroke-width:0.5;" width="4" x="493.5" y="75.34"/><text fill="#000000" font-family="sans-serif" font-size="14" lengthAdjust="spacing" textLength="75" x="415.5" y="97.3351">Valve Base</text></g><!--entity valveparts--><g id="elem_valveparts"><rect fill="#F1F1F1" height="46.2969" rx="2.5" ry="2.5" style="stroke:#181818;stroke-width:0.5;" width="115" x="550.5" y="64.34"/><rect fill="#F1F1F1" height="10" style="stroke:#181818;stroke-width:0.5;" width="15" x="645.5" y="69.34"/><rect fill="#F1F1F1" height="2" style="stroke:#181818;stroke-width:0.5;" width="4" x="643.5" y="71.34"/><rect fill="#F1F1F1" height="2" style="stroke:#181818;stroke-width:0.5;" width="4" x="643.5" y="75.34"/><text fill="#000000" font-family="sans-serif" font-size="14" lengthAdjust="spacing" textLength="75" x="565.5" y="97.3351">Valve Parts</text></g><!--entity gripper--><g id="elem_gripper"><ellipse cx="357" cy="87.49" fill="#F1F1F1" rx="8" ry="8" style="stroke:#181818;stroke-width:0.5;"/><text fill="#000000" font-family="sans-serif" font-size="14" lengthAdjust="spacing" textLength="51" x="331.5" y="117.4851">Gripper</text></g><!--link robot to gripper--><g id="link_robot_gripper"><path d="M313.17,87.49 C324.7,87.49 336.23,87.49 347.76,87.49 " fill="none" id="robot-gripper" style="stroke:#181818;stroke-width:1.0;"/></g><!--link gripper to valvebase--><g id="link_gripper_valvebase"><path d="M366.47,87.49 C375.75,87.49 385.02,87.49 394.3,87.49 " fill="none" id="gripper-to-valvebase" style="stroke:#181818;stroke-width:1.0;"/><polygon fill="#181818" points="399.08,87.49,390.08,83.49,394.08,87.49,390.08,91.49,399.08,87.49" style="stroke:#181818;stroke-width:1.0;"/></g><!--link valveparts to componentholder--><g id="link_valveparts_componentholder"><path d="M665.71,87.49 C677.14,87.49 688.58,87.49 700.01,87.49 " fill="none" id="valveparts-componentholder" style="stroke:#181818;stroke-width:1.0;"/></g><!--link motors to componentholder--><g id="link_motors_componentholder"><path d="M178.23,63.89 C192.58,52.58 211.3,40.23 230.5,34.34 C322.92,6 570.91,14.41 665.5,34.34 C692.91,40.12 721.68,52.54 744.23,63.92 " fill="none" id="motors-componentholder" style="stroke:#181818;stroke-width:1.0;"/></g><!--link plc to motors--><g id="link_plc_motors"><path d="M73.25,87.49 C82.76,87.49 92.27,87.49 101.78,87.49 " fill="none" id="plc-to-motors" style="stroke:#181818;stroke-width:1.0;"/><polygon fill="#181818" points="106.7,87.49,97.7,83.49,101.7,87.49,97.7,91.49,106.7,87.49" style="stroke:#181818;stroke-width:1.0;"/></g><!--link valvebase to valveparts--><g id="link_valvebase_valveparts"><path d="M515.71,87.49 C525.27,87.49 534.82,87.49 544.37,87.49 " fill="none" id="valvebase-to-valveparts" style="stroke:#181818;stroke-width:1.0;"/><polygon fill="#181818" points="549.32,87.49,540.32,83.49,544.32,87.49,540.32,91.49,549.32,87.49" style="stroke:#181818;stroke-width:1.0;"/></g><!--link plc to robot--><g id="link_plc_robot"><path d="M66.58,60.21 C78.35,50.02 93.03,39.64 108.5,34.34 C145.08,21.82 158.6,22.78 195.5,34.34 C212.42,39.64 228.87,50.15 242.16,60.43 " fill="none" id="plc-robot" style="stroke:#181818;stroke-width:1.0;"/><polygon fill="#181818" points="63.38,62.94,72.7634,59.9481,67.1163,59.6173,67.4471,53.9701,63.38,62.94" style="stroke:#181818;stroke-width:1.0;"/><polygon fill="#181818" points="245.54,63.9,240.9721,55.1745,241.6218,60.7939,236.0024,61.4436,245.54,63.9" style="stroke:#181818;stroke-width:1.0;"/></g><!--SRC=[TP0n3i8m34NtdiBgtXiW1Zh005B5m58nfCL0fRIEdAZd9tOAAH9agEp_Vkp-j6VgA5p1U62f2eYdROwrIixsIQXfT3JX5E10zeQij7-BJzMIyqI1s2iVjKponTWPOMSyAfgbxMAtfetXu3DsqXPg6AQ0V3SzGhddmJdaKcoFLAj5Fne1gY-mr51jLrkLv2tnogymAS0V6Dz6PYuXyq2P_rcsoY3-JTJr7ry0]--></g></svg>