<?xml version="1.0" encoding="us-ascii" standalone="no"?><svg xmlns="http://www.w3.org/2000/svg" xmlns:xlink="http://www.w3.org/1999/xlink" contentStyleType="text/css" height="551px" preserveAspectRatio="none" style="width:951px;height:551px;background:#FFFFFF;" version="1.1" viewBox="0 0 951 551" width="951px" zoomAndPan="magnify"><defs/><g><!--cluster initial--><g id="cluster_initial"><path d="M507.33,7 L581.33,7 A12.5,12.5 0 0 1 593.83,19.5 L593.83,28.2969 L494.83,28.2969 L494.83,19.5 A12.5,12.5 0 0 1 507.33,7 " fill="#F1F1F1" style="stroke:#F1F1F1;stroke-width:1.0;"/><rect fill="none" height="364" rx="12.5" ry="12.5" style="stroke:#181818;stroke-width:0.5;" width="99" x="494.83" y="7"/><line style="stroke:#181818;stroke-width:0.5;" x1="494.83" x2="593.83" y1="28.2969" y2="28.2969"/><text fill="#000000" font-family="sans-serif" font-size="14" lengthAdjust="spacing" textLength="34" x="527.33" y="23.9951">initial</text></g><!--cluster MotorStart--><g id="cluster_MotorStart"><path d="M311.33,428 L578.33,428 A12.5,12.5 0 0 1 590.83,440.5 L590.83,449.2969 L298.83,449.2969 L298.83,440.5 A12.5,12.5 0 0 1 311.33,428 " fill="#F1F1F1" style="stroke:#F1F1F1;stroke-width:1.0;"/><rect fill="none" height="117" rx="12.5" ry="12.5" style="stroke:#181818;stroke-width:0.5;" width="292" x="298.83" y="428"/><line style="stroke:#181818;stroke-width:0.5;" x1="298.83" x2="590.83" y1="449.2969" y2="449.2969"/><text fill="#000000" font-family="sans-serif" font-size="14" lengthAdjust="spacing" textLength="72" x="408.83" y="444.9951">MotorStart</text></g><!--cluster MotorStop--><g id="cluster_MotorStop"><path d="M638.33,117 L905.33,117 A12.5,12.5 0 0 1 917.83,129.5 L917.83,138.2969 L625.83,138.2969 L625.83,129.5 A12.5,12.5 0 0 1 638.33,117 " fill="#F1F1F1" style="stroke:#F1F1F1;stroke-width:1.0;"/><rect fill="none" height="117" rx="12.5" ry="12.5" style="stroke:#181818;stroke-width:0.5;" width="292" x="625.83" y="117"/><line style="stroke:#181818;stroke-width:0.5;" x1="625.83" x2="917.83" y1="138.2969" y2="138.2969"/><text fill="#000000" font-family="sans-serif" font-size="14" lengthAdjust="spacing" textLength="72" x="735.83" y="133.9951">MotorStop</text></g><ellipse cx="548.83" cy="52" fill="#181818" rx="10" ry="10" style="stroke:none;stroke-width:1.0;"/><g id="initial.idle"><rect fill="#F1F1F1" height="50" rx="12.5" ry="12.5" style="stroke:#181818;stroke-width:0.5;" width="50" x="523.83" y="160"/><line style="stroke:#181818;stroke-width:0.5;" x1="523.83" x2="573.83" y1="186.2969" y2="186.2969"/><text fill="#000000" font-family="sans-serif" font-size="14" lengthAdjust="spacing" textLength="24" x="536.83" y="177.9951">idle</text></g><g id="initial.PLC"><rect fill="#F1F1F1" height="50" rx="12.5" ry="12.5" style="stroke:#181818;stroke-width:0.5;" width="50" x="515.83" y="305"/><line style="stroke:#181818;stroke-width:0.5;" x1="515.83" x2="565.83" y1="331.2969" y2="331.2969"/><text fill="#000000" font-family="sans-serif" font-size="14" lengthAdjust="spacing" textLength="26" x="527.83" y="322.9951">PLC</text></g><g id="MotorStart.SensorHigh"><rect fill="#F1F1F1" height="50" rx="12.5" ry="12.5" style="stroke:#181818;stroke-width:0.5;" width="100" x="341.83" y="471"/><line style="stroke:#181818;stroke-width:0.5;" x1="341.83" x2="441.83" y1="497.2969" y2="497.2969"/><text fill="#000000" font-family="sans-serif" font-size="14" lengthAdjust="spacing" textLength="80" x="351.83" y="488.9951">SensorHigh</text></g><g id="MotorStart.MotorSpin"><rect fill="#F1F1F1" height="50" rx="12.5" ry="12.5" style="stroke:#181818;stroke-width:0.5;" width="90" x="476.83" y="471"/><line style="stroke:#181818;stroke-width:0.5;" x1="476.83" x2="566.83" y1="497.2969" y2="497.2969"/><text fill="#000000" font-family="sans-serif" font-size="14" lengthAdjust="spacing" textLength="70" x="486.83" y="488.9951">MotorSpin</text></g><g id="MotorStop.SensorLow"><rect fill="#F1F1F1" height="50" rx="12.5" ry="12.5" style="stroke:#181818;stroke-width:0.5;" width="96" x="797.83" y="160"/><line style="stroke:#181818;stroke-width:0.5;" x1="797.83" x2="893.83" y1="186.2969" y2="186.2969"/><text fill="#000000" font-family="sans-serif" font-size="14" lengthAdjust="spacing" textLength="76" x="807.83" y="177.9951">SensorLow</text></g><g id="MotorStop.motorStop"><rect fill="#F1F1F1" height="50" rx="12.5" ry="12.5" style="stroke:#181818;stroke-width:0.5;" width="93" x="669.33" y="160"/><line style="stroke:#181818;stroke-width:0.5;" x1="669.33" x2="762.33" y1="186.2969" y2="186.2969"/><text fill="#000000" font-family="sans-serif" font-size="14" lengthAdjust="spacing" textLength="73" x="679.33" y="177.9951">motorStop</text></g><g id="RobotAssembly"><rect fill="#F1F1F1" height="50" rx="12.5" ry="12.5" style="stroke:#181818;stroke-width:0.5;" width="128" x="71.83" y="160"/><line style="stroke:#181818;stroke-width:0.5;" x1="71.83" x2="199.83" y1="186.2969" y2="186.2969"/><text fill="#000000" font-family="sans-serif" font-size="14" lengthAdjust="spacing" textLength="108" x="81.83" y="177.9951">RobotAssembly</text></g><!--link *start*initial to idle--><g id="link_*start*initial_idle"><path d="M548.83,62.42 C548.83,81.29 548.83,124.41 548.83,153.88 " fill="none" id="*start*initial-to-idle" style="stroke:#181818;stroke-width:1.0;"/><polygon fill="#181818" points="548.83,158.58,552.83,149.58,548.83,153.58,544.83,149.58,548.83,158.58" style="stroke:#181818;stroke-width:1.0;"/></g><!--link idle to PLC--><g id="link_idle_PLC"><path d="M546.47,210.31 C545.2,224.25 543.72,242.09 542.83,258 C542.09,271.33 541.62,286.09 541.32,298.68 " fill="none" id="idle-to-PLC" style="stroke:#181818;stroke-width:1.0;"/><polygon fill="#181818" points="541.19,303.67,545.3946,294.7638,541.3043,298.6713,537.3967,294.5809,541.19,303.67" style="stroke:#181818;stroke-width:1.0;"/><text fill="#000000" font-family="sans-serif" font-size="13" lengthAdjust="spacing" textLength="30" x="543.83" y="271.0669">start</text></g><!--reverse link PLC to SensorHigh--><g id="link_PLC_SensorHigh"><path d="M509.63,334.42 C477.35,339.74 428.17,353.21 402.83,387 C384.85,410.98 384.96,446.83 387.63,470.56 " fill="none" id="PLC-backto-SensorHigh" style="stroke:#181818;stroke-width:1.0;"/><polygon fill="#181818" points="514.46,333.52,504.9581,330.9288,509.5176,334.2771,506.1694,338.8366,514.46,333.52" style="stroke:#181818;stroke-width:1.0;"/><text fill="#000000" font-family="sans-serif" font-size="13" lengthAdjust="spacing" textLength="220" x="403.83" y="400.0669">Sensor High, component detected</text></g><!--link PLC to MotorStart--><g id="link_PLC_MotorStart"><path d="M515.33,333.18 C459.99,338.5 331.76,354.17 305.83,387 C291.19,405.54 291.2025,431.9925 294.9913,454.0775 C295.9384,459.5988 297.1216,464.847 298.3709,469.6305 C298.449,469.9294 298.5273,470.2266 298.6059,470.5219 C298.6452,470.6695 298.6845,470.8167 298.7239,470.9634 " fill="none" id="PLC-to-MotorStart" style="stroke:#181818;stroke-width:1.0;"/><polygon fill="#181818" points="298.7239,470.9634,300.2538,461.2341,297.4276,466.1343,292.5274,463.3081,298.7239,470.9634" style="stroke:#181818;stroke-width:1.0;"/><text fill="#000000" font-family="sans-serif" font-size="13" lengthAdjust="spacing" textLength="78" x="306.83" y="400.0669">Sensor High</text></g><!--link MotorSpin to PLC--><g id="link_MotorSpin_PLC"><path d="M567.1,471.12 C591.44,455.58 619.19,432.83 632.83,404 C647.42,373.16 603.64,351.45 571.55,340.11 " fill="none" id="MotorSpin-to-PLC" style="stroke:#181818;stroke-width:1.0;"/><polygon fill="#181818" points="567.12,338.25,574.345,344.9432,571.8519,339.8654,576.9297,337.3722,567.12,338.25" style="stroke:#181818;stroke-width:1.0;"/><text fill="#000000" font-family="sans-serif" font-size="13" lengthAdjust="spacing" textLength="53" x="635.83" y="400.0669">spinning</text></g><!--reverse link RobotAssembly to PLC--><g id="link_RobotAssembly_PLC"><path d="M73.26,213.01 C42.8,229.87 16.67,252.56 36.83,275 C53.04,293.04 415.24,320.07 515.38,327.21 " fill="none" id="RobotAssembly-backto-PLC" style="stroke:#181818;stroke-width:1.0;"/><polygon fill="#181818" points="77.18,210.36,67.3586,211.0955,72.7754,212.7262,71.1446,218.143,77.18,210.36" style="stroke:#181818;stroke-width:1.0;"/><text fill="#000000" font-family="sans-serif" font-size="13" lengthAdjust="spacing" textLength="150" x="37.83" y="271.0669">Motor high, sensor high</text></g><!--link RobotAssembly to PLC--><g id="link_RobotAssembly_PLC"><path d="M154.06,210.15 C171.05,230.81 198.31,259.59 228.83,275 C323.01,322.53 451.32,329.15 509.66,329.48 " fill="none" id="RobotAssembly-to-PLC" style="stroke:#181818;stroke-width:1.0;"/><polygon fill="#181818" points="514.42,329.49,505.4315,325.4643,509.42,329.4757,505.4086,333.4643,514.42,329.49" style="stroke:#181818;stroke-width:1.0;"/><text fill="#000000" font-family="sans-serif" font-size="13" lengthAdjust="spacing" textLength="115" x="229.83" y="271.0669">Assembly starting</text></g><!--link RobotAssembly to PLC--><g id="link_RobotAssembly_PLC"><path d="M200.16,207.06 C242.74,221.14 299.76,240.28 349.83,258 C406.73,278.14 472.62,302.97 510.25,317.29 " fill="none" id="RobotAssembly-to-PLC-1" style="stroke:#181818;stroke-width:1.0;"/><polygon fill="#181818" points="514.59,319.33,507.6115,312.3801,509.9196,317.5447,504.755,319.8527,514.59,319.33" style="stroke:#181818;stroke-width:1.0;"/><text fill="#000000" font-family="sans-serif" font-size="13" lengthAdjust="spacing" textLength="115" x="392.83" y="271.0669">Assembly finished</text></g><!--link RobotAssembly to MotorStart--><g id="link_RobotAssembly_MotorStart"><path d="M71.43,207.03 C37.62,222.03 6,244.88 20.83,275 C55.7,345.81 125.5275,400.21 187.4538,437.2 C218.4169,455.695 247.4047,469.8375 269.0598,479.5025 C279.8874,484.335 288.8818,488.0481 295.3734,490.6263 C296.1849,490.9485 296.9572,491.253 297.6891,491.5398 C298.0551,491.6832 298.411,491.8221 298.7565,491.9566 " fill="none" id="RobotAssembly-to-MotorStart" style="stroke:#181818;stroke-width:1.0;"/><polygon fill="#181818" points="298.7565,491.9566,291.82,484.9649,294.097,490.1432,288.9186,492.4202,298.7565,491.9566" style="stroke:#181818;stroke-width:1.0;"/><text fill="#000000" font-family="sans-serif" font-size="13" lengthAdjust="spacing" textLength="175" x="101.83" y="334.5669">Pick and place components</text></g><!--link SensorLow to PLC--><g id="link_SensorLow_PLC"><path d="M823.06,210.31 C810.8,222.81 795.09,237.91 779.83,250 C716.8,299.94 620.89,318.9 571.94,325.62 " fill="none" id="SensorLow-to-PLC" style="stroke:#181818;stroke-width:1.0;"/><polygon fill="#181818" points="567.21,326.38,576.6576,329.1626,572.1666,325.7229,575.6063,321.232,567.21,326.38" style="stroke:#181818;stroke-width:1.0;"/><text fill="#000000" font-family="sans-serif" font-size="13" lengthAdjust="spacing" textLength="174" x="769.83" y="271.0669">Sensor Low, no component</text></g><!--link PLC to MotorStop--><g id="link_PLC_MotorStop"><path d="M558.36,304.75 C564.9,295.52 572.33,284.85 578.83,275 C591.235,256.2 604.5275,234.7325 614.9375,217.5925 C617.54,213.3075 619.9623,209.293 622.1456,205.6582 C623.2373,203.8408 624.2691,202.1184 625.2339,200.5045 C625.3545,200.3028 625.474,200.1028 625.5925,199.9045 C625.6517,199.8053 625.7107,199.7066 625.7694,199.6083 " fill="none" id="PLC-to-MotorStop" style="stroke:#181818;stroke-width:1.0;"/><polygon fill="#181818" points="625.7694,199.6083,617.7203,205.2838,623.2055,203.9009,624.5885,209.3861,625.7694,199.6083" style="stroke:#181818;stroke-width:1.0;"/><text fill="#000000" font-family="sans-serif" font-size="13" lengthAdjust="spacing" textLength="71" x="589.83" y="271.0669">sensor Low</text></g><!--link MotorStop to PLC--><g id="link_MotorStop_PLC"><path d="M643.1338,234.0258 C643.1792,234.1309 643.2249,234.236 643.2708,234.341 C643.3626,234.5509 643.4553,234.7605 643.5489,234.9697 C643.7361,235.388 643.9269,235.8047 644.1214,236.2196 C644.8994,237.8791 645.7361,239.5093 646.636,241.0967 C648.4359,244.2714 650.4888,247.275 652.83,250 C658.27,256.33 665.36,250.95 669.83,258 C673.88,264.38 674.02,268.71 669.83,275 C648.11,307.63 602.48,320.58 571.73,325.7 " fill="none" id="MotorStop-to-PLC" style="stroke:#181818;stroke-width:1.0;"/><polygon fill="#181818" points="567.18,326.56,576.6892,329.1243,572.1202,325.789,575.4555,321.22,567.18,326.56" style="stroke:#181818;stroke-width:1.0;"/><text fill="#000000" font-family="sans-serif" font-size="13" lengthAdjust="spacing" textLength="58" x="673.83" y="271.0669">spin stop</text></g><!--link motorStop to idle--><g id="link_motorStop_idle"><path d="M707.98,159.61 C698.4,133.86 679.4,95.81 647.33,81.5 C607.93,63.92 576.59,118.01 560.56,154.5 " fill="none" id="motorStop-to-idle" style="stroke:#181818;stroke-width:1.0;"/><polygon fill="#181818" points="558.3,158.74,565.5219,152.0434,560.2696,154.1443,558.1687,148.892,558.3,158.74" style="stroke:#181818;stroke-width:1.0;"/></g><!--SRC=[ZLAxQiGm4Epr5Lk7ym-e28GqAIvmn6L8eREKiuYzAwmDHp3txrazBhRpW3G6pyxip8xTic477ZrxCy2idczU6ajdR6wz7PnA3wZ0ONyF6YARYK5Tb8fP-aXCKvl1MG6q3YDD3_xKD-yXQtJ5884xw6WCX0uPh6FNiREY4berMTPjTC8fa-1n6qS0z7YIG2NF4ns9xs9qut7ucElk56Kpq6KTz3bJB4Rf1KInOIvk6gvOAK5S_sAlhpZuxWqCMWY3wTnoV_oNqwjycjWx-xDn2gl2ztHUosjpWku0QV7yhMhPewyDY02-gfR9UcTgMWwd88Jn6o7_AvTF]--></g></svg>